HIERARCHY
ROOT Hips
{
	OFFSET 0.000000 0.000000 0.000000
	CHANNELS 6 Xposition Yposition Zposition Zrotation Xrotation Yrotation
	JOINT Spine
	{
		OFFSET -0.705602 0.948509 -18.580898
		CHANNELS 3 Zrotation Xrotation Yrotation
		JOINT Chest
		{
			OFFSET 0.087786 1.637049 -19.367004
			CHANNELS 3 Zrotation Xrotation Yrotation
			JOINT Neck
			{
				OFFSET 0.611866 -8.098824 -4.803067
				CHANNELS 3 Zrotation Xrotation Yrotation
				JOINT Head
				{
					OFFSET 1.410373 9.998352 -17.087908
					CHANNELS 3 Zrotation Xrotation Yrotation
					End Site
					{
						OFFSET 0.000000 -5.000000 0.000000
					}
				}
			}
			JOINT LeftShoulder
			{
				OFFSET 12.672127 -1.648898 3.195412
				CHANNELS 3 Zrotation Xrotation Yrotation
				JOINT LeftElbow
				{
					OFFSET 15.396786 -2.967230 25.078593
					CHANNELS 3 Zrotation Xrotation Yrotation
					JOINT LeftWrist
					{
						OFFSET 0.571038 6.542850 21.688171
						CHANNELS 3 Zrotation Xrotation Yrotation
						End Site
						{
							OFFSET 0.000000 -5.000000 0.000000
						}
					}
				}
			}
			JOINT RightShoulder
			{
				OFFSET -12.459818 -4.363071 3.053438
				CHANNELS 3 Zrotation Xrotation Yrotation
				JOINT RightElbow
				{
					OFFSET -16.097276 -4.094850 24.544793
					CHANNELS 3 Zrotation Xrotation Yrotation
					JOINT RightWrist
					{
						OFFSET 0.449026 8.143058 21.813373
						CHANNELS 3 Zrotation Xrotation Yrotation
						End Site
						{
							OFFSET 0.000000 -5.000000 0.000000
						}
					}
				}
			}
		}
	}
	JOINT LeftHip
	{
		OFFSET 8.291738 8.313946 -0.294975
		CHANNELS 3 Zrotation Xrotation Yrotation
		JOINT LeftKnee
		{
			OFFSET 10.387466 3.865551 49.615940
			CHANNELS 3 Zrotation Xrotation Yrotation
			JOINT LeftAnkle
			{
				OFFSET 6.646096 -12.880966 36.178445
				CHANNELS 3 Zrotation Xrotation Yrotation
				JOINT LeftToe
				{
					OFFSET -4.030989 15.123067 7.706077
					CHANNELS 3 Zrotation Xrotation Yrotation
					End Site
					{
						OFFSET 0.000000 -5.000000 0.000000
					}
				}
			}
		}
	}
	JOINT RightHip
	{
		OFFSET -10.141483 5.324963 0.501587
		CHANNELS 3 Zrotation Xrotation Yrotation
		JOINT RightKnee
		{
			OFFSET -3.011105 4.483816 51.116899
			CHANNELS 3 Zrotation Xrotation Yrotation
			JOINT RightAnkle
			{
				OFFSET 4.170723 -15.455874 35.542751
				CHANNELS 3 Zrotation Xrotation Yrotation
				JOINT RightToe
				{
					OFFSET 1.464728 17.962387 8.581459
					CHANNELS 3 Zrotation Xrotation Yrotation
					End Site
					{
						OFFSET 0.000000 -5.000000 0.000000
					}
				}
			}
		}
	}
}
MOTION
Frames: 12
Frame Time: 0.008333
-109.424222 1.658051 -90.511656 -19.792988 -0.317352 -1.910497 0.259826 0.949175 3.348493 5.450951 13.837217 -2.646140 -0.448451 -2.664976 -0.385347 -0.000000 0.000000 0.000000 10.162244 -17.500491 -1.389271 1.015923 0.000000 -3.374610 -0.000000 0.000000 0.000000 -6.046959 -6.678514 -6.637738 5.000000 4.777355 -5.000000 -0.000000 0.000000 0.000000 1.648528 -7.846062 0.849593 -2.625923 19.269600 5.000000 -4.087111 -17.939931 -3.716239 -0.000000 0.000000 0.000000 2.926463 5.981333 -18.140057 -2.250622 0.000000 -5.000000 4.481700 -2.345808 -1.883352 -0.000000 0.000000 0.000000
-107.763618 1.432151 -91.382802 -19.730987 -0.454496 -1.542817 0.260988 0.834712 3.327228 5.060887 13.576095 -2.397983 -0.534558 -2.276330 -0.582902 -0.000000 0.000000 0.000000 9.678803 -17.087849 -2.168192 1.235880 0.000000 -4.192120 -0.000000 0.000000 0.000000 -5.489420 -5.811829 -6.919493 5.000000 5.137700 -5.000000 -0.000000 0.000000 0.000000 1.429742 -6.776714 -0.174584 -2.434286 17.594382 4.847081 -4.179468 -17.544305 -3.539556 -0.000000 0.000000 0.000000 3.255301 7.273145 -18.442490 -2.897713 0.000000 -5.000000 5.096472 1.662933 -2.636871 -0.000000 0.000000 0.000000
-106.149216 1.215940 -92.300218 -19.557131 -0.559946 -1.209640 0.262919 0.686677 3.305978 4.574639 13.303010 -2.087707 -0.664884 -1.947650 -0.847554 -0.000000 0.000000 0.000000 9.124559 -16.543179 -2.962455 1.360369 0.000000 -4.671706 -0.000000 0.000000 0.000000 -4.927933 -4.947367 -7.209046 5.000000 5.434043 -5.000000 -0.000000 0.000000 0.000000 1.223397 -5.675772 -1.129373 -2.208726 15.782559 3.821970 -3.983134 -16.875457 -3.377207 -0.000000 0.000000 0.000000 3.549787 8.454757 -18.645853 -3.126772 0.000000 -5.000000 6.987233 5.829033 -4.093217 -0.000000 0.000000 0.000000
-104.601164 0.991045 -93.245119 -19.154934 -0.576637 -0.970157 0.270110 0.503025 3.340365 3.931441 12.939011 -1.679335 -0.894350 -1.684800 -1.270632 -0.000000 0.000000 0.000000 8.470625 -15.842061 -3.837065 1.392082 0.000000 -4.811351 -0.000000 0.000000 0.000000 -4.388031 -4.102740 -7.560263 5.000000 5.720030 -5.000000 -0.000000 0.000000 0.000000 1.037877 -4.618868 -1.880936 -2.009241 13.876621 2.765611 -3.763891 -16.026756 -3.165450 -0.000000 0.000000 0.000000 3.731134 9.320308 -18.584352 -3.527986 0.000000 -5.000000 7.406017 9.686816 -4.791762 -0.000000 0.000000 0.000000
-103.116226 0.745658 -94.212839 -18.728756 -0.534124 -0.805913 0.281252 0.262223 3.404272 3.241557 12.691231 -1.236515 -1.127742 -1.533126 -1.685267 -0.000000 0.000000 0.000000 7.831832 -15.122280 -4.676057 1.357543 0.000000 -4.703885 -0.000000 0.000000 0.000000 -3.937670 -3.387082 -7.919310 5.000000 6.008300 -5.000000 -0.000000 0.000000 0.000000 0.876792 -3.647718 -2.489213 -1.795484 11.872403 1.844591 -3.265179 -14.937072 -2.989836 -0.000000 0.000000 0.000000 3.825350 9.958036 -18.325611 -3.748112 0.000000 -5.000000 6.893561 11.126223 -4.682146 -0.000000 0.000000 0.000000
-101.703232 0.483715 -95.192899 -18.327155 -0.445416 -0.777160 0.303026 0.008158 3.586843 2.603387 12.571371 -0.822293 -1.372613 -1.563817 -2.091577 -0.000000 0.000000 0.000000 7.249702 -14.432279 -5.420334 1.292029 0.000000 -4.474127 -0.000000 0.000000 0.000000 -3.605030 -2.847074 -8.244838 5.000000 6.289472 -5.000000 -0.000000 0.000000 0.000000 0.728500 -2.745517 -2.892965 -1.594138 9.800410 0.968013 -2.585665 -13.386933 -2.750835 -0.000000 0.000000 0.000000 3.819357 10.225370 -17.974391 -3.458171 0.000000 -5.000000 6.115893 10.505063 -4.179164 -0.000000 0.000000 0.000000
-100.345224 0.217143 -96.198027 -17.903867 -0.374068 -0.830408 0.327803 -0.151242 3.826009 1.986010 12.511016 -0.418892 -1.635244 -1.739227 -2.504000 -0.000000 0.000000 0.000000 6.738249 -13.791015 -6.041876 1.220414 0.000000 -4.209029 -0.000000 0.000000 0.000000 -3.387753 -2.478854 -8.523602 5.000000 6.564699 -5.000000 -0.000000 0.000000 0.000000 0.563229 -1.772321 -3.117092 -1.411847 7.507510 0.007613 -1.870653 -11.480523 -2.440408 -0.000000 0.000000 0.000000 3.783099 10.362953 -17.617451 -2.740336 0.000000 -5.000000 5.061729 10.475690 -3.595021 -0.000000 0.000000 0.000000
-99.058672 -0.087880 -97.225008 -17.675355 -0.197467 -0.960256 0.360234 -0.434923 4.101148 1.566132 12.674623 -0.132457 -1.835976 -2.066874 -2.786836 -0.000000 0.000000 0.000000 6.386787 -13.302675 -6.391723 1.163410 0.000000 -3.990747 -0.000000 0.000000 0.000000 -3.295256 -2.331292 -8.613979 5.000000 6.832607 -5.000000 -0.000000 0.000000 0.000000 0.417529 -0.933241 -3.214705 -1.213321 4.964151 -0.907917 -0.863586 -9.108976 -2.153311 -0.000000 0.000000 0.000000 3.677821 10.357888 -17.052543 -1.886844 0.000000 -5.000000 4.170035 10.563889 -3.113584 -0.000000 0.000000 0.000000
-97.806686 -0.396194 -98.289453 -17.522070 -0.054590 -1.110736 0.387586 -0.576782 4.357313 1.277492 12.636780 0.055774 -1.967755 -2.287820 -2.970634 -0.000000 0.000000 0.000000 6.051228 -12.745397 -6.548154 1.125208 0.000000 -3.839252 -0.000000 0.000000 0.000000 -3.221965 -2.255734 -8.540890 5.000000 7.190437 -5.000000 -0.000000 0.000000 0.000000 0.254615 -0.017916 -3.244939 -1.062952 2.391613 -1.846142 0.001571 -6.582738 -1.810135 -0.000000 0.000000 0.000000 3.523022 10.270321 -16.307017 -1.068327 0.000000 -5.000000 3.436800 10.132465 -2.668591 -0.000000 0.000000 0.000000
-96.585117 -0.717018 -99.390640 -17.412866 0.078060 -1.215225 0.398929 -0.610080 4.471172 1.068638 12.318491 0.173904 -1.991976 -2.278517 -3.012448 -0.000000 0.000000 0.000000 5.694749 -12.054928 -6.508424 1.111312 0.000000 -3.783039 -0.000000 0.000000 0.000000 -3.116212 -2.190497 -8.279181 5.000000 7.648331 -5.000000 -0.000000 0.000000 0.000000 0.100668 0.855705 -3.284324 -0.954008 0.000000 -2.787530 0.961527 -3.682188 -1.461457 -0.000000 0.000000 0.000000 3.334260 10.055545 -15.501960 -0.293612 0.000000 -4.204180 2.883787 9.595698 -2.315973 -0.000000 0.000000 0.000000
-95.388138 -1.038211 -100.504053 -17.385210 0.154569 -1.285845 0.395169 -0.512313 4.466486 0.973066 11.802496 0.204500 -1.903852 -2.091614 -2.896024 -0.000000 0.000000 0.000000 5.345038 -11.294985 -6.279746 1.107715 0.000000 -3.766247 -0.000000 0.000000 0.000000 -2.990164 -2.157952 -7.803262 5.000000 8.154269 -5.000000 -0.000000 0.000000 0.000000 -0.045709 1.702370 -3.344957 -0.894674 0.000000 -3.722769 1.869905 -0.573493 -1.094410 -0.000000 0.000000 0.000000 3.144946 9.845620 -14.669282 0.469727 0.000000 -2.642211 2.592645 9.108799 -2.112972 -0.000000 0.000000 0.000000
-94.214839 -1.363254 -101.610674 -17.441310 0.211895 -1.324950 0.380493 -0.373602 4.353380 0.975183 11.170995 0.163349 -1.724000 -1.758560 -2.649438 -0.000000 0.000000 0.000000 5.007630 -10.495271 -5.886098 1.104018 0.000000 -3.746686 -0.000000 0.000000 0.000000 -2.826076 -2.124876 -7.143500 5.000000 8.617323 -5.000000 -0.000000 0.000000 0.000000 -0.174917 2.488663 -3.459565 -0.822494 0.000000 -4.504017 2.927707 2.768427 -0.809372 -0.000000 0.000000 0.000000 2.961302 9.687754 -13.796063 1.202969 0.000000 -1.083639 2.639609 8.675608 -2.098015 -0.000000 0.000000 0.000000
